<svg width="378" height="154" viewBox="0 0 378 154" fill="none" xmlns="http://www.w3.org/2000/svg">
<path d="M5.63 134.543C3.75 107.896 1.87333 81.3863 0 55.013C9.48 53.8863 18.96 52.6197 28.44 51.213C25.6067 76.3063 22.76 101.09 19.9 125.563C30.14 125.07 40.3767 124.546 50.61 123.993C50.4633 128.613 50.3167 133.26 50.17 137.933C35.3233 136.813 20.4767 135.683 5.63 134.543Z" fill="#171717"/>
<path d="M85.93 145.053C79.69 144.383 74.17 143.123 69.36 141.303C64.55 139.493 60.54 136.993 57.34 133.823C56.6 130.093 56.08 126.773 55.75 123.843C55.5 120.853 55.37 118.043 55.36 115.453C55.34 107.513 56.4 100.293 58.54 93.743C60.76 87.123 63.58 81.393 66.99 76.503C70.4 71.443 73.94 67.593 77.59 64.993C80.87 66.333 84.18 68.023 87.54 70.073C90.98 72.053 94.14 74.453 97.03 77.273C99.92 80.143 102.25 83.433 104.02 87.153C105.8 90.803 106.7 94.863 106.72 99.313C106.74 103.973 106.08 107.863 104.74 110.963C103.47 113.963 101.13 116.153 97.69 117.523C94.26 118.873 89.31 119.343 82.83 118.933C80.11 118.763 77.48 118.453 74.92 118.013C72.44 117.573 70.28 117.083 68.44 116.503C66.93 120.733 66.19 125.203 66.2 129.913C68.04 130.353 70.04 130.763 72.2 131.123C74.36 131.403 76.44 131.643 78.44 131.823C82.2 132.153 86.04 132.143 89.96 131.813C93.96 131.373 97.95 130.433 101.94 128.983C103.16 133.876 104.383 138.79 105.61 143.723C102.41 144.683 99.13 145.223 95.77 145.363C92.41 145.493 89.13 145.393 85.93 145.053ZM75.85 110.513C78.89 110.653 81.92 110.613 84.96 110.373C88.07 110.133 90.79 109.773 93.1 109.293C93.34 107.373 93.45 105.543 93.44 103.813C93.42 100.343 93.01 97.253 92.2 94.543C91.47 91.753 90.54 89.313 89.42 87.213C84.96 90.723 81.26 94.373 78.32 98.163C75.46 101.903 72.96 105.893 70.81 110.143C71.61 110.273 72.45 110.353 73.33 110.403C74.21 110.443 75.05 110.483 75.85 110.513Z" fill="#171717"/>
<path d="M128.09 148.163C125.857 112.15 123.613 76.383 121.36 40.863C129.867 38.4297 138.373 35.9697 146.88 33.483C145.533 56.3764 144.18 79.3064 142.82 102.273C151.24 88.7864 159.647 75.0364 168.04 61.023C170.733 63.8097 173.43 66.6163 176.13 69.443C170.017 78.523 163.893 87.503 157.76 96.383C166.553 114.503 175.347 132.99 184.14 151.843C176.54 151.81 168.94 151.746 161.34 151.653C156.267 138.593 151.193 125.63 146.12 112.763C144.693 114.516 143.267 116.26 141.84 117.993C141.213 128.04 140.587 138.043 139.96 148.003C136 148.063 132.043 148.116 128.09 148.163Z" fill="#171717"/>
<path d="M199.83 153.433C197.537 114.173 195.193 74.8897 192.8 35.583C201.38 34.4897 209.963 33.4497 218.55 32.463C217.21 55.643 215.867 79.0563 214.52 102.703C222.96 88.9763 231.403 75.5663 239.85 62.473C242.557 65.3063 245.263 68.1197 247.97 70.913C241.81 79.2197 235.653 87.6763 229.5 96.283C238.287 113.136 247.063 129.563 255.83 145.563C248.237 147.016 240.643 148.476 233.05 149.943C227.983 137.956 222.913 125.746 217.84 113.313C216.407 115.233 214.977 117.16 213.55 119.093C212.93 129.673 212.31 140.22 211.69 150.733C207.737 151.626 203.783 152.526 199.83 153.433Z" fill="#171717"/>
<path d="M293.47 144.903C287.24 145.573 281.71 145.473 276.91 144.603C272.11 143.703 268.1 141.863 264.88 139.063C264.14 135.103 263.61 131.523 263.27 128.323C263.02 125.013 262.88 121.883 262.87 118.973C262.82 110.003 263.86 101.773 265.98 94.313C268.19 86.923 271 80.663 274.43 75.513C277.85 70.343 281.4 66.593 285.08 64.253C288.38 65.953 291.72 67.963 295.1 70.283C298.56 72.473 301.74 75.003 304.64 77.853C307.54 80.683 309.87 83.823 311.65 87.293C313.42 90.643 314.32 94.343 314.33 98.403C314.34 102.653 313.67 106.253 312.32 109.213C311.04 112.103 308.69 114.383 305.25 116.063C301.81 117.763 296.85 118.823 290.37 119.223C287.65 119.393 285.01 119.413 282.44 119.283C279.96 119.133 277.8 118.883 275.96 118.503C274.46 123.223 273.72 128.123 273.74 133.173C275.58 133.313 277.58 133.383 279.74 133.383C281.9 133.293 283.98 133.173 285.98 133.003C289.74 132.673 293.58 132.003 297.5 131.003C301.5 129.903 305.49 128.343 309.49 126.343C310.703 130.75 311.917 135.16 313.13 139.573C309.94 141.123 306.66 142.313 303.31 143.143C299.95 143.973 296.67 144.563 293.47 144.903ZM283.37 111.373C286.41 111.233 289.46 110.903 292.5 110.383C295.62 109.863 298.34 109.273 300.66 108.613C300.89 106.743 301.01 104.963 301 103.293C300.99 99.943 300.58 96.973 299.77 94.373C299.04 91.683 298.11 89.303 296.98 87.243C292.5 90.723 288.79 94.463 285.84 98.433C282.97 102.443 280.47 106.793 278.33 111.463C279.13 111.523 279.97 111.533 280.85 111.493C281.73 111.453 282.57 111.413 283.37 111.373Z" fill="#171717"/>
<path d="M334.99 139.243C332.897 117.416 330.807 95.703 328.72 74.103C337.3 72.9763 345.883 71.8763 354.47 70.803C353.677 77.4163 352.88 84.0363 352.08 90.663C352.367 90.6563 352.65 90.653 352.93 90.653C355.97 83.803 359.57 78.523 363.74 74.773C367.99 70.963 372.56 68.913 377.45 68.563C376.33 77.0896 375.21 85.6196 374.09 94.153C372.81 94.003 371.56 93.893 370.36 93.823C369.24 93.673 368.12 93.603 367 93.613C363.55 93.653 360.58 94.453 358.1 96.033C355.7 97.633 353.7 100.483 352.1 104.593C350.58 108.653 349.38 114.393 348.51 121.843C347.963 126.77 347.413 131.75 346.86 136.783C342.907 137.596 338.95 138.416 334.99 139.243Z" fill="#171717"/>
<path d="M332.975 30.0125L336.644 43.383C333.226 46.8591 321.01 53.443 299.487 51.9703C292.725 51.5076 286.796 51.7891 281.725 52.4926L298.326 38.0857C307.09 37.8936 324.162 35.952 332.975 30.0125Z" fill="#001489"/>
<path d="M332.356 27.7576C316.469 34.9227 295.515 34.8954 295.515 34.8954C290.987 38.3324 282.929 45.7658 274.645 53.854C267.634 55.6107 263.059 58.0893 261.035 59.7805L252.796 16.389C254.671 14.2069 257.599 12.1271 263.16 10.6471C278.197 16.561 288.979 21.9964 293.425 24.706C293.425 24.706 314.063 23.9742 329.467 17.2317L332.356 27.7576Z" fill="#007749"/>
<path d="M271.262 9.1839L294.386 21.2445C302.771 20.776 318.528 18.7428 328.613 14.1198L324.93 0.698662C320.773 3.40188 307.644 8.74466 288.38 8.49007C281.408 8.39793 275.801 8.66018 271.262 9.1839Z" fill="#E03C31"/>
<path d="M260.485 56.8821C266.693 48.383 275.028 38.343 284.621 30.0006C279.219 26.7273 266.983 20.5815 253.443 19.7968L260.485 56.8821Z" fill="#FFB81C"/>
<path d="M259.576 52.0932C264.578 45.7943 270.64 38.7029 277.664 31.3561C273.331 28.8004 264.529 25.081 254.2 23.7821L259.576 52.0932Z" fill="#171717"/>
</svg>
