<svg width="378" height="89" viewBox="0 0 378 89" fill="none" xmlns="http://www.w3.org/2000/svg">
<path d="M5.64 87L0 7.92L28.56 6.12L19.92 77.28L50.64 73.56L50.16 85.92L5.64 87Z" fill="#171717"/>
<path d="M85.9059 88.8C79.6659 88.8 74.1459 88.24 69.3459 87.12C64.5459 86 60.5459 84.2 57.3459 81.72C56.6259 78.52 56.1059 75.64 55.7859 73.08C55.5459 70.44 55.4259 67.96 55.4259 65.64C55.4259 58.52 56.5059 52 58.6659 46.08C60.9059 40.16 63.7459 35.08 67.1859 30.84C70.6259 26.52 74.1859 23.32 77.8659 21.24C81.1459 22.52 84.4659 24.08 87.8259 25.92C91.2659 27.68 94.4259 29.76 97.3059 32.16C100.186 34.56 102.506 37.28 104.266 40.32C106.026 43.28 106.906 46.56 106.906 50.16C106.906 53.92 106.226 57.08 104.866 59.64C103.586 62.12 101.226 64 97.7859 65.28C94.3459 66.56 89.3859 67.2 82.9059 67.2C80.1859 67.2 77.5459 67.08 74.9859 66.84C72.5059 66.6 70.3459 66.28 68.5059 65.88C66.9859 69.64 66.2259 73.56 66.2259 77.64C68.0659 77.88 70.0659 78.08 72.2259 78.24C74.3859 78.32 76.4659 78.36 78.4659 78.36C82.2259 78.36 86.0659 78.08 89.9859 77.52C93.9859 76.88 97.9859 75.84 101.986 74.4L105.586 86.04C102.386 87.08 99.1059 87.8 95.7459 88.2C92.3859 88.6 89.1059 88.8 85.9059 88.8ZM75.9459 60.36C78.9859 60.36 82.0259 60.2 85.0659 59.88C88.1859 59.56 90.9059 59.16 93.2259 58.68C93.4659 57.08 93.5859 55.56 93.5859 54.12C93.5859 51.24 93.1859 48.68 92.3859 46.44C91.6659 44.12 90.7459 42.08 89.6259 40.32C85.1459 43.28 81.4259 46.4 78.4659 49.68C75.5859 52.96 73.0659 56.48 70.9059 60.24C71.7059 60.32 72.5459 60.36 73.4259 60.36C74.3059 60.36 75.1459 60.36 75.9459 60.36Z" fill="#171717"/>
<path d="M128.047 87.72L121.927 3.96L147.607 0L143.047 51.84L168.607 21.6L176.647 27.84L158.047 47.28L184.087 86.16L161.287 87.72L146.287 59.64L141.967 63.72L139.927 86.64L128.047 87.72Z" fill="#171717"/>
<path d="M199.766 87.72L193.646 3.96L219.326 0L214.766 51.84L240.326 21.6L248.366 27.84L229.766 47.28L255.806 86.16L233.006 87.72L218.006 59.64L213.686 63.72L211.646 86.64L199.766 87.72Z" fill="#171717"/>
<path d="M293.445 88.8C287.205 88.8 281.685 88.24 276.885 87.12C272.085 86 268.085 84.2 264.885 81.72C264.165 78.52 263.645 75.64 263.325 73.08C263.085 70.44 262.965 67.96 262.965 65.64C262.965 58.52 264.045 52 266.205 46.08C268.445 40.16 271.285 35.08 274.725 30.84C278.165 26.52 281.725 23.32 285.405 21.24C288.685 22.52 292.005 24.08 295.365 25.92C298.805 27.68 301.965 29.76 304.845 32.16C307.725 34.56 310.045 37.28 311.805 40.32C313.565 43.28 314.445 46.56 314.445 50.16C314.445 53.92 313.765 57.08 312.405 59.64C311.125 62.12 308.765 64 305.325 65.28C301.885 66.56 296.925 67.2 290.445 67.2C287.725 67.2 285.085 67.08 282.525 66.84C280.045 66.6 277.885 66.28 276.045 65.88C274.525 69.64 273.765 73.56 273.765 77.64C275.605 77.88 277.605 78.08 279.765 78.24C281.925 78.32 284.005 78.36 286.005 78.36C289.765 78.36 293.605 78.08 297.525 77.52C301.525 76.88 305.525 75.84 309.525 74.4L313.125 86.04C309.925 87.08 306.645 87.8 303.285 88.2C299.925 88.6 296.645 88.8 293.445 88.8ZM283.485 60.36C286.525 60.36 289.565 60.2 292.605 59.88C295.725 59.56 298.445 59.16 300.765 58.68C301.005 57.08 301.125 55.56 301.125 54.12C301.125 51.24 300.725 48.68 299.925 46.44C299.205 44.12 298.285 42.08 297.165 40.32C292.685 43.28 288.965 46.4 286.005 49.68C283.125 52.96 280.605 56.48 278.445 60.24C279.245 60.32 280.085 60.36 280.965 60.36C281.845 60.36 282.685 60.36 283.485 60.36Z" fill="#171717"/>
<path d="M334.987 87.72L328.867 28.2L354.547 24.24L352.147 43.44H352.987C356.027 36.8 359.627 31.6 363.787 27.84C368.027 24 372.587 21.88 377.467 21.48L374.107 47.04C372.827 46.88 371.587 46.76 370.387 46.68C369.267 46.52 368.147 46.44 367.027 46.44C363.587 46.44 360.627 47.2 358.147 48.72C355.747 50.24 353.747 52.96 352.147 56.88C350.627 60.72 349.427 66.12 348.547 73.08L346.867 86.64L334.987 87.72Z" fill="#171717"/>
</svg>
