<svg width="253" height="86" viewBox="0 0 253 86" fill="none" xmlns="http://www.w3.org/2000/svg">
<path d="M4.2 58.72L0.440002 6L19.48 4.8L13.72 52.24L34.2 49.76L33.88 58L4.2 58.72Z" fill="#171717"/>
<path d="M57.7106 59.92C53.5506 59.92 49.8706 59.5467 46.6706 58.8C43.4706 58.0533 40.804 56.8533 38.6706 55.2C38.1906 53.0667 37.844 51.1467 37.6306 49.44C37.4706 47.68 37.3906 46.0267 37.3906 44.48C37.3906 39.7333 38.1106 35.3867 39.5506 31.44C41.044 27.4933 42.9373 24.1067 45.2306 21.28C47.524 18.4 49.8973 16.2667 52.3506 14.88C54.5373 15.7333 56.7506 16.7733 58.9906 18C61.284 19.1733 63.3906 20.56 65.3106 22.16C67.2306 23.76 68.7773 25.5733 69.9506 27.6C71.124 29.5733 71.7106 31.76 71.7106 34.16C71.7106 36.6667 71.2573 38.7733 70.3506 40.48C69.4973 42.1333 67.924 43.3867 65.6306 44.24C63.3373 45.0933 60.0306 45.52 55.7106 45.52C53.8973 45.52 52.1373 45.44 50.4306 45.28C48.7773 45.12 47.3373 44.9067 46.1106 44.64C45.0973 47.1467 44.5906 49.76 44.5906 52.48C45.8173 52.64 47.1506 52.7733 48.5906 52.88C50.0306 52.9333 51.4173 52.96 52.7506 52.96C55.2573 52.96 57.8173 52.7733 60.4306 52.4C63.0973 51.9733 65.764 51.28 68.4306 50.32L70.8306 58.08C68.6973 58.7733 66.5106 59.2533 64.2706 59.52C62.0306 59.7867 59.844 59.92 57.7106 59.92ZM51.0706 40.96C53.0973 40.96 55.124 40.8533 57.1506 40.64C59.2306 40.4267 61.044 40.16 62.5906 39.84C62.7506 38.7733 62.8306 37.76 62.8306 36.8C62.8306 34.88 62.564 33.1733 62.0306 31.68C61.5506 30.1333 60.9373 28.7733 60.1906 27.6C57.204 29.5733 54.724 31.6533 52.7506 33.84C50.8306 36.0267 49.1506 38.3733 47.7106 40.88C48.244 40.9333 48.804 40.96 49.3906 40.96C49.9773 40.96 50.5373 40.96 51.0706 40.96Z" fill="#171717"/>
<path d="M85.805 59.2L81.725 3.36L98.845 0.720001L95.805 35.28L112.845 15.12L118.205 19.28L105.805 32.24L123.165 58.16L107.965 59.2L97.965 40.48L95.085 43.2L93.725 58.48L85.805 59.2Z" fill="#171717"/>
<path d="M133.618 59.2L129.538 3.36L146.658 0.720001L143.618 35.28L160.658 15.12L166.018 19.28L153.618 32.24L170.978 58.16L155.778 59.2L145.777 40.48L142.898 43.2L141.538 58.48L133.618 59.2Z" fill="#171717"/>
<path d="M196.07 59.92C191.91 59.92 188.23 59.5467 185.03 58.8C181.83 58.0533 179.163 56.8533 177.03 55.2C176.55 53.0667 176.203 51.1467 175.99 49.44C175.83 47.68 175.75 46.0267 175.75 44.48C175.75 39.7333 176.47 35.3867 177.91 31.44C179.403 27.4933 181.297 24.1067 183.59 21.28C185.883 18.4 188.257 16.2667 190.71 14.88C192.897 15.7333 195.11 16.7733 197.35 18C199.643 19.1733 201.75 20.56 203.67 22.16C205.59 23.76 207.137 25.5733 208.31 27.6C209.483 29.5733 210.07 31.76 210.07 34.16C210.07 36.6667 209.617 38.7733 208.71 40.48C207.857 42.1333 206.283 43.3867 203.99 44.24C201.697 45.0933 198.39 45.52 194.07 45.52C192.257 45.52 190.497 45.44 188.79 45.28C187.137 45.12 185.697 44.9067 184.47 44.64C183.457 47.1467 182.95 49.76 182.95 52.48C184.177 52.64 185.51 52.7733 186.95 52.88C188.39 52.9333 189.777 52.96 191.11 52.96C193.617 52.96 196.177 52.7733 198.79 52.4C201.457 51.9733 204.123 51.28 206.79 50.32L209.19 58.08C207.057 58.7733 204.87 59.2533 202.63 59.52C200.39 59.7867 198.203 59.92 196.07 59.92ZM189.43 40.96C191.457 40.96 193.483 40.8533 195.51 40.64C197.59 40.4267 199.403 40.16 200.95 39.84C201.11 38.7733 201.19 37.76 201.19 36.8C201.19 34.88 200.923 33.1733 200.39 31.68C199.91 30.1333 199.297 28.7733 198.55 27.6C195.563 29.5733 193.083 31.6533 191.11 33.84C189.19 36.0267 187.51 38.3733 186.07 40.88C186.603 40.9333 187.163 40.96 187.75 40.96C188.337 40.96 188.897 40.96 189.43 40.96Z" fill="#171717"/>
<path d="M223.764 59.2L219.684 19.52L236.804 16.88L235.204 29.68H235.764C237.791 25.2533 240.191 21.7867 242.964 19.28C245.791 16.72 248.831 15.3067 252.084 15.04L249.844 32.08C248.991 31.9733 248.164 31.8933 247.364 31.84C246.618 31.7333 245.871 31.68 245.124 31.68C242.831 31.68 240.858 32.1867 239.204 33.2C237.604 34.2133 236.271 36.0267 235.204 38.64C234.191 41.2 233.391 44.8 232.804 49.44L231.684 58.48L223.764 59.2Z" fill="#171717"/>
<path d="M49.88 85V73.992H53.336V82.472H57.24L57.08 85H49.88Z" fill="#171717"/>
<path d="M68.0581 85V73.992H75.7861V76.424H71.9461V78.376H75.4501V80.392H71.9461V82.488H75.7861V85H68.0581Z" fill="#171717"/>
<path d="M86.014 85L89.054 73.992H94.238L97.422 85H93.502L93.086 82.888H90.238L89.774 85H86.014ZM90.574 80.92H92.702L91.662 76.104L90.574 80.92Z" fill="#171717"/>
<path d="M116.219 85.256C115.451 85.256 114.816 85.144 114.315 84.92C113.814 84.6853 113.414 84.3653 113.115 83.96C112.816 83.5547 112.592 83.08 112.443 82.536C112.294 81.992 112.192 81.4053 112.139 80.776H111.387V85H107.883V73.992H112.411C114.16 73.992 115.419 74.3013 116.187 74.92C116.966 75.528 117.355 76.3547 117.355 77.4C117.355 78.0293 117.184 78.5947 116.843 79.096C116.502 79.5867 115.952 79.9973 115.195 80.328C115.238 80.5627 115.275 80.7547 115.307 80.904C115.339 81.0533 115.387 81.2187 115.451 81.4C115.59 81.784 115.76 82.0507 115.963 82.2C116.176 82.3493 116.464 82.424 116.827 82.424C117.062 82.424 117.296 82.392 117.531 82.328L117.723 84.952C117.51 85.0373 117.28 85.1067 117.035 85.16C116.8 85.224 116.528 85.256 116.219 85.256ZM111.387 78.584H111.995C112.784 78.584 113.339 78.4987 113.659 78.328C113.99 78.1467 114.155 77.8427 114.155 77.416C114.155 77.0533 114.022 76.792 113.755 76.632C113.488 76.4613 113.067 76.376 112.491 76.376H111.387V78.584Z" fill="#171717"/>
<path d="M128.296 85V73.992H131.496L135.816 79.832V73.992H138.76V85H135.56L131.24 79.4V85H128.296Z" fill="#171717"/>
<path d="M150.114 85V73.992H153.73V85H150.114Z" fill="#171717"/>
<path d="M165.089 85V73.992H168.289L172.609 79.832V73.992H175.553V85H172.353L168.033 79.4V85H165.089Z" fill="#171717"/>
<path d="M192.124 85.256C190.972 85.256 189.969 85.0213 189.116 84.552C188.273 84.0827 187.617 83.432 187.148 82.6C186.679 81.768 186.444 80.808 186.444 79.72C186.444 78.5573 186.689 77.528 187.18 76.632C187.671 75.736 188.359 75.032 189.244 74.52C190.129 74.008 191.159 73.752 192.332 73.752C193.612 73.752 194.631 74.008 195.388 74.52L194.908 77.032C194.236 76.744 193.537 76.6 192.812 76.6C191.937 76.6 191.249 76.8613 190.748 77.384C190.247 77.9067 189.996 78.632 189.996 79.56C189.996 80.4987 190.22 81.2293 190.668 81.752C191.127 82.2747 191.708 82.536 192.412 82.536C192.668 82.536 192.881 82.5147 193.052 82.472V79.736L195.82 79.416V84.424C195.212 84.7013 194.593 84.9093 193.964 85.048C193.335 85.1867 192.721 85.256 192.124 85.256Z" fill="#171717"/>
</svg>
