<svg width="287" height="64" viewBox="0 0 287 64" fill="none" xmlns="http://www.w3.org/2000/svg">
<path d="M8.92 4.20003C10.4667 4.20003 11.64 4.73337 12.44 5.80003C13.24 6.81336 13.64 8.49336 13.64 10.84C13.64 13.7734 13.2933 17.08 12.6 20.76C11.9067 24.44 10.92 27.9334 9.64 31.24L8.36 29.64C12.6267 28.7334 17.0533 28.3067 21.64 28.36C26.2267 28.4134 30.3867 28.9467 34.12 29.96L32.68 30.68C31.9867 27.1067 31.4533 23.56 31.08 20.04C30.76 16.52 30.6 13.4 30.6 10.68C30.6 8.17336 30.9733 6.3867 31.72 5.32003C32.4667 4.25336 33.6667 3.72003 35.32 3.72003C37.0267 3.72003 38.36 4.33336 39.32 5.56003C40.28 6.73336 41.0267 8.60003 41.56 11.16C42.1467 13.8267 42.6 17.0534 42.92 20.84C43.2933 24.5734 43.48 28.4134 43.48 32.36C43.48 36.2534 43.3733 40.2267 43.16 44.28C42.9467 48.3334 42.5467 52.0934 41.96 55.56C41.48 58.3334 40.7067 60.3334 39.64 61.56C38.5733 62.7867 37.1067 63.4 35.24 63.4C33.32 63.4 31.9333 62.7867 31.08 61.56C30.28 60.3334 29.88 58.04 29.88 54.68C29.88 51.4267 30.12 48.04 30.6 44.52C31.1333 41 31.8533 37.5334 32.76 34.12L34.44 36.6C30.3867 37.4534 26.1467 37.88 21.72 37.88C17.3467 37.8267 13.08 37.4 8.92 36.6L9.08 33.88C10.1467 37.3467 11.1333 40.92 12.04 44.6C13 48.28 13.48 51.96 13.48 55.64C13.48 58.5734 12.9733 60.6534 11.96 61.88C10.9467 63.0534 9.50667 63.64 7.64 63.64C6.04 63.64 4.76 63.1867 3.8 62.28C2.84 61.3734 2.14667 59.6934 1.72 57.24C1.29333 54.84 0.946666 51.8534 0.679999 48.28C0.413332 44.6534 0.279999 40.84 0.279999 36.84C0.279999 32.0934 0.493332 27.48 0.919999 23C1.34667 18.52 1.90667 14.68 2.6 11.48C3.13333 8.97336 3.90667 7.13336 4.92 5.96003C5.93333 4.7867 7.26667 4.20003 8.92 4.20003Z" fill="black"/>
<path d="M113.171 21C113.171 15.08 113.731 10.8667 114.851 8.36003C116.024 5.80003 117.811 4.52003 120.211 4.52003C121.757 4.52003 122.957 4.97337 123.811 5.88003C124.664 6.7867 125.251 8.01336 125.571 9.56003C125.944 11.0534 126.131 12.76 126.131 14.68C126.131 17.5067 126.077 20.8667 125.971 24.76C125.864 28.6534 125.704 32.6534 125.491 36.76C125.331 40.8134 125.117 44.5734 124.851 48.04H125.171C126.824 41.2134 128.477 35.4534 130.131 30.76C131.784 26.0134 133.464 22.4134 135.171 19.96C136.877 17.4534 138.584 16.2 140.291 16.2C142.104 16.2 143.837 17.48 145.491 20.04C147.144 22.6 148.771 26.28 150.371 31.08C152.024 35.88 153.704 41.6134 155.411 48.28H155.731C155.571 44.6534 155.411 40.92 155.251 37.08C155.144 33.1867 155.037 29.3467 154.931 25.56C154.877 21.7734 154.851 18.2534 154.851 15C154.851 12.0667 155.037 9.8267 155.411 8.28003C155.837 6.68003 156.424 5.56003 157.171 4.92003C157.917 4.28003 158.771 3.96003 159.731 3.96003C162.024 3.96003 163.784 5.24003 165.011 7.80003C166.237 10.3067 166.851 14.0134 166.851 18.92C166.851 28.2 166.424 35.9067 165.571 42.04C164.771 48.1734 163.597 52.7867 162.051 55.88C160.504 58.92 158.637 60.44 156.451 60.44C154.957 60.44 153.464 59.6934 151.971 58.2C150.477 56.6534 149.037 54.4934 147.651 51.72C146.264 48.8934 144.931 45.56 143.651 41.72C142.371 37.88 141.171 33.64 140.051 29H139.731C138.717 33.64 137.651 37.8 136.531 41.48C135.411 45.16 134.211 48.3067 132.931 50.92C131.651 53.48 130.291 55.4534 128.851 56.84C127.464 58.2267 125.944 58.92 124.291 58.92C122.531 58.92 120.957 58.12 119.571 56.52C118.184 54.92 117.011 52.5467 116.051 49.4C115.144 46.2 114.424 42.2534 113.891 37.56C113.411 32.8134 113.171 27.2934 113.171 21Z" fill="black"/>
<path d="M174.189 55.48C174.189 53.4 175.283 50.6 177.469 47.08C179.656 43.5067 183.203 39.08 188.109 33.8C193.016 28.4667 199.549 22.1734 207.709 14.92V14.68C204.989 15.32 202.003 15.9334 198.749 16.52C195.496 17.1067 192.349 17.5867 189.309 17.96C186.323 18.28 183.843 18.44 181.869 18.44C179.256 18.44 177.336 18.0134 176.109 17.16C174.883 16.3067 174.269 15.0534 174.269 13.4C174.269 12.12 174.589 11 175.229 10.04C175.869 9.0267 176.936 8.17336 178.429 7.48003C180.776 6.41336 184.056 5.5867 188.269 5.00003C192.536 4.36003 197.016 4.04003 201.709 4.04003C205.336 4.04003 208.296 4.3067 210.589 4.84003C212.936 5.37336 214.669 6.28003 215.789 7.56003C216.909 8.7867 217.469 10.4934 217.469 12.68C217.469 14.28 216.696 16.44 215.149 19.16C213.656 21.8267 211.416 24.9467 208.429 28.52C205.496 32.0934 201.896 36.04 197.629 40.36C193.363 44.6267 188.509 49.1867 183.069 54.04V54.28C185.523 53.2134 188.323 52.28 191.469 51.48C194.669 50.6267 197.869 49.96 201.069 49.48C204.323 48.9467 207.229 48.68 209.789 48.68C212.296 48.68 214.083 49.08 215.149 49.88C216.269 50.68 216.829 52.0134 216.829 53.88C216.829 55.9067 216.029 57.5334 214.429 58.76C212.883 59.9867 210.643 60.8934 207.709 61.48C205.256 61.96 202.723 62.36 200.109 62.68C197.549 63 195.043 63.2134 192.589 63.32C190.189 63.48 188.003 63.56 186.029 63.56C182.189 63.56 179.256 62.9467 177.229 61.72C175.203 60.44 174.189 58.36 174.189 55.48Z" fill="black"/>
<path d="M231.771 9.80003C233.158 9.80003 234.251 10.3334 235.051 11.4C235.851 12.4667 236.438 14.12 236.811 16.36C237.185 18.4934 237.478 21.2934 237.691 24.76C237.958 28.1734 238.091 31.9334 238.091 36.04C238.091 39.6134 237.958 43.0267 237.691 46.28C237.478 49.48 237.158 52.4934 236.731 55.32C236.305 58.4134 235.638 60.5734 234.731 61.8C233.825 63.0267 232.598 63.64 231.051 63.64C229.558 63.64 228.385 63.16 227.531 62.2C226.731 61.24 226.171 59.6134 225.851 57.32C225.585 55.4 225.345 52.92 225.131 49.88C224.918 46.7867 224.811 43.5067 224.811 40.04C224.811 35.1334 224.971 30.7067 225.291 26.76C225.611 22.76 226.038 19.4267 226.571 16.76C227.051 14.36 227.665 12.6 228.411 11.48C229.211 10.36 230.331 9.80003 231.771 9.80003Z" fill="black"/>
<path d="M267.458 1.00003C269.325 1.00003 271.378 1.1067 273.618 1.32003C275.858 1.48003 277.991 1.85337 280.018 2.44003C282.045 3.0267 283.698 3.88003 284.978 5.00003C286.311 6.0667 286.978 7.53336 286.978 9.40003C286.978 11.3734 286.045 12.76 284.178 13.56C282.365 14.36 279.591 14.76 275.858 14.76C274.631 14.76 273.298 14.7067 271.858 14.6C270.471 14.4934 269.058 14.3334 267.618 14.12L269.458 11.8C269.938 14.52 270.365 17.5334 270.738 20.84C271.111 24.0934 271.431 27.4 271.698 30.76C272.018 34.12 272.231 37.2934 272.338 40.28C272.498 43.2667 272.578 45.8 272.578 47.88C272.578 52.5734 272.071 56.0934 271.058 58.44C270.098 60.7867 268.445 61.96 266.098 61.96C263.645 61.96 261.885 60.76 260.818 58.36C259.751 55.96 259.218 52.2534 259.218 47.24C259.218 44.84 259.325 42.0934 259.538 39C259.805 35.8534 260.151 32.6534 260.578 29.4C261.005 26.1467 261.458 23 261.938 19.96C262.471 16.92 263.005 14.28 263.538 12.04L265.778 14.12C264.551 14.3334 262.978 14.5467 261.058 14.76C259.138 14.9734 257.378 15.08 255.778 15.08C251.725 15.08 248.791 14.7867 246.978 14.2C245.218 13.6134 244.338 12.4134 244.338 10.6C244.338 8.68003 245.058 7.1067 246.498 5.88003C247.991 4.65336 249.885 3.69336 252.178 3.00003C254.525 2.25336 257.031 1.7467 259.698 1.48003C262.418 1.16003 265.005 1.00003 267.458 1.00003Z" fill="black"/>
<path d="M102.619 15.9214C96.6855 4.78984 85.3715 -3.57838 71.2369 3.0781C68.3827 4.42228 65.8573 5.80645 63.6377 7.24198L78.4091 13.6181C83.3096 13.2 87.4567 15.0519 90.4955 18.249L102.619 15.9214Z" fill="#DE3830"/>
<path d="M107.129 36.0352C106.274 47.6664 99.1256 57.3081 86.8309 59.6686C82.268 60.5447 77.5094 60.3193 72.9965 59.1671L84.2726 47.858C88.3115 46.0317 91.8108 42.6515 93.8461 38.5854L107.129 36.0352Z" fill="#002395"/>
<path d="M55.9251 48.4265L63.8213 40.6511C62.8373 38.8486 62.1136 36.8405 61.7028 34.7008C61.2594 32.3911 61.3794 30.0565 61.9528 27.824L50.9055 23.1751C49.7917 27.5104 49.8946 32.311 50.932 37.7145C51.7012 41.7206 53.4651 45.3306 55.9251 48.4265Z" fill="#141414"/>
<path d="M58.4958 51.2416L66.0149 43.8377C65.1864 42.8725 64.4506 41.8038 63.8213 40.6511L55.9251 48.4265C56.7137 49.419 57.574 50.3587 58.4958 51.2416Z" fill="#FFB611"/>
<path d="M50.9055 23.1751L61.9528 27.824C62.2681 26.5962 62.7206 25.3993 63.2918 24.2543L52.164 19.5716C51.6409 20.737 51.2236 21.9371 50.9055 23.1751Z" fill="#FFB611"/>
<path d="M59.8694 9.96326C56.238 12.9127 53.7281 16.0869 52.164 19.5716L63.2918 24.2543C65.1604 20.509 68.2999 17.3201 72.0686 15.4268L59.8694 9.96326Z" fill="#007A4D"/>
<path d="M93.42 22.3496C94.1605 23.7457 94.7553 25.2592 95.1901 26.8528C95.8085 29.1197 95.8743 31.4053 95.498 33.606L107.138 31.3712C107.041 29.94 106.854 28.4905 106.574 27.0317C106.14 24.7697 105.472 22.4644 104.588 20.2054L93.42 22.3496Z" fill="#007A4D"/>
<path d="M68.7492 57.7799L76.951 49.3276C72.6089 49.145 68.7912 47.0722 66.0149 43.8377L58.4958 51.2416C61.403 54.0259 64.9236 56.246 68.7492 57.7799Z" fill="#007A4D"/>
<path d="M63.6377 7.24198C62.2668 8.1286 61.0126 9.03478 59.8694 9.96326L72.0686 15.4268C73.5057 14.7049 75.0342 14.1714 76.6186 13.8672C77.2258 13.7506 77.8228 13.6681 78.4091 13.6181L63.6377 7.24198Z" fill="white"/>
<path d="M90.4955 18.249C91.6313 19.4441 92.6123 20.827 93.42 22.3496L104.588 20.2054C104.019 18.7501 103.361 17.3142 102.619 15.9214L90.4955 18.249Z" fill="white"/>
<path d="M107.138 31.3712L95.498 33.606C95.2024 35.335 94.6339 37.0116 93.8461 38.5854L107.129 36.0352C107.241 34.5108 107.245 32.9521 107.138 31.3712Z" fill="white"/>
<path d="M72.9965 59.1671L84.2726 47.858C83.0673 48.4029 81.8138 48.8096 80.537 49.0547C79.3108 49.2901 78.1121 49.3764 76.951 49.3276L68.7492 57.7799C70.13 58.3336 71.5507 58.7979 72.9965 59.1671Z" fill="white"/>
</svg>
