<svg width="287" height="70" viewBox="0 0 287 70" fill="none" xmlns="http://www.w3.org/2000/svg">
<path d="M8.92 8.2C10.4667 8.2 11.64 8.73333 12.44 9.8C13.24 10.8133 13.64 12.4933 13.64 14.84C13.64 17.7733 13.2933 21.08 12.6 24.76C11.9067 28.44 10.92 31.9333 9.64 35.24L8.36 33.64C12.6267 32.7333 17.0533 32.3067 21.64 32.36C26.2267 32.4133 30.3867 32.9467 34.12 33.96L32.68 34.68C31.9867 31.1067 31.4533 27.56 31.08 24.04C30.76 20.52 30.6 17.4 30.6 14.68C30.6 12.1733 30.9733 10.3867 31.72 9.32C32.4667 8.25333 33.6667 7.72 35.32 7.72C37.0267 7.72 38.36 8.33333 39.32 9.56C40.28 10.7333 41.0267 12.6 41.56 15.16C42.1467 17.8267 42.6 21.0533 42.92 24.84C43.2933 28.5733 43.48 32.4133 43.48 36.36C43.48 40.2533 43.3733 44.2267 43.16 48.28C42.9467 52.3333 42.5467 56.0933 41.96 59.56C41.48 62.3333 40.7067 64.3333 39.64 65.56C38.5733 66.7867 37.1067 67.4 35.24 67.4C33.32 67.4 31.9333 66.7867 31.08 65.56C30.28 64.3333 29.88 62.04 29.88 58.68C29.88 55.4267 30.12 52.04 30.6 48.52C31.1333 45 31.8533 41.5333 32.76 38.12L34.44 40.6C30.3867 41.4533 26.1467 41.88 21.72 41.88C17.3467 41.8267 13.08 41.4 8.92 40.6L9.08 37.88C10.1467 41.3467 11.1333 44.92 12.04 48.6C13 52.28 13.48 55.96 13.48 59.64C13.48 62.5733 12.9733 64.6533 11.96 65.88C10.9467 67.0533 9.50667 67.64 7.64 67.64C6.04 67.64 4.76 67.1867 3.8 66.28C2.84 65.3733 2.14667 63.6933 1.72 61.24C1.29333 58.84 0.946666 55.8533 0.679999 52.28C0.413332 48.6533 0.279999 44.84 0.279999 40.84C0.279999 36.0933 0.493332 31.48 0.919999 27C1.34667 22.52 1.90667 18.68 2.6 15.48C3.13333 12.9733 3.90667 11.1333 4.92 9.96C5.93333 8.78667 7.26667 8.2 8.92 8.2Z" fill="black"/>
<path d="M113.171 25C113.171 19.08 113.731 14.8667 114.851 12.36C116.024 9.8 117.811 8.52 120.211 8.52C121.757 8.52 122.957 8.97333 123.811 9.88C124.664 10.7867 125.251 12.0133 125.571 13.56C125.944 15.0533 126.131 16.76 126.131 18.68C126.131 21.5067 126.077 24.8667 125.971 28.76C125.864 32.6533 125.704 36.6533 125.491 40.76C125.331 44.8133 125.117 48.5733 124.851 52.04H125.171C126.824 45.2133 128.477 39.4533 130.131 34.76C131.784 30.0133 133.464 26.4133 135.171 23.96C136.877 21.4533 138.584 20.2 140.291 20.2C142.104 20.2 143.837 21.48 145.491 24.04C147.144 26.6 148.771 30.28 150.371 35.08C152.024 39.88 153.704 45.6133 155.411 52.28H155.731C155.571 48.6533 155.411 44.92 155.251 41.08C155.144 37.1867 155.037 33.3467 154.931 29.56C154.877 25.7733 154.851 22.2533 154.851 19C154.851 16.0667 155.037 13.8267 155.411 12.28C155.837 10.68 156.424 9.56 157.171 8.92C157.917 8.28 158.771 7.96 159.731 7.96C162.024 7.96 163.784 9.24 165.011 11.8C166.237 14.3067 166.851 18.0133 166.851 22.92C166.851 32.2 166.424 39.9067 165.571 46.04C164.771 52.1733 163.597 56.7867 162.051 59.88C160.504 62.92 158.637 64.44 156.451 64.44C154.957 64.44 153.464 63.6933 151.971 62.2C150.477 60.6533 149.037 58.4933 147.651 55.72C146.264 52.8933 144.931 49.56 143.651 45.72C142.371 41.88 141.171 37.64 140.051 33H139.731C138.717 37.64 137.651 41.8 136.531 45.48C135.411 49.16 134.211 52.3067 132.931 54.92C131.651 57.48 130.291 59.4533 128.851 60.84C127.464 62.2267 125.944 62.92 124.291 62.92C122.531 62.92 120.957 62.12 119.571 60.52C118.184 58.92 117.011 56.5467 116.051 53.4C115.144 50.2 114.424 46.2533 113.891 41.56C113.411 36.8133 113.171 31.2933 113.171 25Z" fill="black"/>
<path d="M174.189 59.48C174.189 57.4 175.283 54.6 177.469 51.08C179.656 47.5067 183.203 43.08 188.109 37.8C193.016 32.4667 199.549 26.1733 207.709 18.92V18.68C204.989 19.32 202.003 19.9333 198.749 20.52C195.496 21.1067 192.349 21.5867 189.309 21.96C186.323 22.28 183.843 22.44 181.869 22.44C179.256 22.44 177.336 22.0133 176.109 21.16C174.883 20.3067 174.269 19.0533 174.269 17.4C174.269 16.12 174.589 15 175.229 14.04C175.869 13.0267 176.936 12.1733 178.429 11.48C180.776 10.4133 184.056 9.58667 188.269 9C192.536 8.36 197.016 8.04 201.709 8.04C205.336 8.04 208.296 8.30667 210.589 8.84C212.936 9.37333 214.669 10.28 215.789 11.56C216.909 12.7867 217.469 14.4933 217.469 16.68C217.469 18.28 216.696 20.44 215.149 23.16C213.656 25.8267 211.416 28.9467 208.429 32.52C205.496 36.0933 201.896 40.04 197.629 44.36C193.363 48.6267 188.509 53.1867 183.069 58.04V58.28C185.523 57.2133 188.323 56.28 191.469 55.48C194.669 54.6267 197.869 53.96 201.069 53.48C204.323 52.9467 207.229 52.68 209.789 52.68C212.296 52.68 214.083 53.08 215.149 53.88C216.269 54.68 216.829 56.0133 216.829 57.88C216.829 59.9067 216.029 61.5333 214.429 62.76C212.883 63.9867 210.643 64.8933 207.709 65.48C205.256 65.96 202.723 66.36 200.109 66.68C197.549 67 195.043 67.2133 192.589 67.32C190.189 67.48 188.003 67.56 186.029 67.56C182.189 67.56 179.256 66.9467 177.229 65.72C175.203 64.44 174.189 62.36 174.189 59.48Z" fill="black"/>
<path d="M231.771 13.8C233.158 13.8 234.251 14.3333 235.051 15.4C235.851 16.4667 236.438 18.12 236.811 20.36C237.185 22.4933 237.478 25.2933 237.691 28.76C237.958 32.1733 238.091 35.9333 238.091 40.04C238.091 43.6133 237.958 47.0267 237.691 50.28C237.478 53.48 237.158 56.4933 236.731 59.32C236.305 62.4133 235.638 64.5733 234.731 65.8C233.825 67.0267 232.598 67.64 231.051 67.64C229.558 67.64 228.385 67.16 227.531 66.2C226.731 65.24 226.171 63.6133 225.851 61.32C225.585 59.4 225.345 56.92 225.131 53.88C224.918 50.7867 224.811 47.5067 224.811 44.04C224.811 39.1333 224.971 34.7067 225.291 30.76C225.611 26.76 226.038 23.4267 226.571 20.76C227.051 18.36 227.665 16.6 228.411 15.48C229.211 14.36 230.331 13.8 231.771 13.8Z" fill="black"/>
<path d="M267.458 5C269.325 5 271.378 5.10667 273.618 5.32C275.858 5.48 277.991 5.85334 280.018 6.44C282.045 7.02667 283.698 7.88 284.978 9C286.311 10.0667 286.978 11.5333 286.978 13.4C286.978 15.3733 286.045 16.76 284.178 17.56C282.365 18.36 279.591 18.76 275.858 18.76C274.631 18.76 273.298 18.7067 271.858 18.6C270.471 18.4933 269.058 18.3333 267.618 18.12L269.458 15.8C269.938 18.52 270.365 21.5333 270.738 24.84C271.111 28.0933 271.431 31.4 271.698 34.76C272.018 38.12 272.231 41.2933 272.338 44.28C272.498 47.2667 272.578 49.8 272.578 51.88C272.578 56.5733 272.071 60.0933 271.058 62.44C270.098 64.7867 268.445 65.96 266.098 65.96C263.645 65.96 261.885 64.76 260.818 62.36C259.751 59.96 259.218 56.2533 259.218 51.24C259.218 48.84 259.325 46.0933 259.538 43C259.805 39.8533 260.151 36.6533 260.578 33.4C261.005 30.1467 261.458 27 261.938 23.96C262.471 20.92 263.005 18.28 263.538 16.04L265.778 18.12C264.551 18.3333 262.978 18.5467 261.058 18.76C259.138 18.9733 257.378 19.08 255.778 19.08C251.725 19.08 248.791 18.7867 246.978 18.2C245.218 17.6133 244.338 16.4133 244.338 14.6C244.338 12.68 245.058 11.1067 246.498 9.88C247.991 8.65333 249.885 7.69333 252.178 7C254.525 6.25333 257.031 5.74667 259.698 5.48C262.418 5.16 265.005 5 267.458 5Z" fill="black"/>
<mask id="mask0_2_56" style="mask-type:alpha" maskUnits="userSpaceOnUse" x="50" y="4" width="58" height="61">
<path fill-rule="evenodd" clip-rule="evenodd" d="M86.8309 63.6686C102.196 60.7186 109.524 46.3967 106.574 31.0317C103.624 15.6666 89.8852 -1.70404 71.237 7.07811C52.5887 15.8603 47.9821 26.3494 50.9321 41.7145C53.882 57.0796 71.4658 66.6186 86.8309 63.6686ZM80.537 53.0547C89.8568 51.2654 97.9242 40.8751 95.1901 30.8528C92.861 22.3151 85.9384 16.0779 76.6186 17.8672C67.2988 19.6565 59.9135 29.381 61.7029 38.7008C63.4922 48.0206 71.2172 54.844 80.537 53.0547Z" fill="#D9D9D9"/>
</mask>
<g mask="url(#mask0_2_56)">
<path d="M115.113 -2.29159L57.7841 8.71521L89.5556 22.4295L127.775 15.0916L125.833 4.97467C125.375 2.58962 123.988 0.48417 121.978 -0.878518C119.968 -2.24121 117.498 -2.7495 115.113 -2.29159Z" fill="#DE3830"/>
<path d="M69.0067 67.1685L126.336 56.1617C128.721 55.7038 130.826 54.3172 132.189 52.3069C133.552 50.2967 134.06 47.8274 133.602 45.4424L131.66 35.3254L93.4403 42.6633L69.0067 67.1685Z" fill="#002395"/>
<path d="M45.7606 25.0101L51.8035 56.485L72.3882 36.2153L45.7606 25.0101Z" fill="#141414"/>
<path d="M44.8973 20.5137L45.7606 25.0101L72.3882 36.2153L51.8036 56.485L52.6668 60.9814L79.1328 34.9204L44.8973 20.5137Z" fill="#FFB611"/>
<path d="M51.1437 10.0554C49.0011 10.7292 47.1809 12.1669 46.0292 14.0952C44.8775 16.0235 44.4747 18.3078 44.8973 20.5137L79.1328 34.9204L52.6668 60.9813C53.0912 63.1869 54.3113 65.1596 56.0952 66.5243C57.8792 67.8889 60.1024 68.5503 62.3422 68.3828L91.4529 38.3827L130.796 30.829L128.638 19.588L89.2947 27.1417L51.1437 10.0554Z" fill="#007A4D"/>
<path d="M57.7841 8.71521L52.1636 9.79431C51.8129 9.86164 51.4759 9.95198 51.1437 10.0554L89.2947 27.1417L128.638 19.588L127.775 15.0916L89.5556 22.4295L57.7841 8.71521ZM62.3422 68.3828C62.689 68.3558 63.0355 68.3149 63.3862 68.2476L69.0067 67.1685L93.4403 42.6633L131.66 35.3254L130.797 30.829L91.4529 38.3827L62.3422 68.3828Z" fill="#EEEEEE"/>
</g>
</svg>
