<svg width="378" height="128" viewBox="0 0 378 128" fill="none" xmlns="http://www.w3.org/2000/svg">
<path d="M6.16893 87.586L0.528931 8.506L29.0889 6.706L20.4489 77.866L51.1689 74.146L50.6889 86.506L6.16893 87.586Z" fill="#171717"/>
<path d="M86.4349 89.386C80.1949 89.386 74.6749 88.826 69.8749 87.706C65.0749 86.586 61.0749 84.786 57.8749 82.306C57.1549 79.106 56.6349 76.226 56.3149 73.666C56.0749 71.026 55.9549 68.546 55.9549 66.226C55.9549 59.106 57.0349 52.586 59.1949 46.666C61.4349 40.746 64.2749 35.666 67.7149 31.426C71.1549 27.106 74.7149 23.906 78.3949 21.826C81.6749 23.106 84.9949 24.666 88.3549 26.506C91.7949 28.266 94.9549 30.346 97.8349 32.746C100.715 35.146 103.035 37.866 104.795 40.906C106.555 43.866 107.435 47.146 107.435 50.746C107.435 54.506 106.755 57.666 105.395 60.226C104.115 62.706 101.755 64.586 98.3149 65.866C94.8749 67.146 89.9149 67.786 83.4349 67.786C80.7149 67.786 78.0749 67.666 75.5149 67.426C73.0349 67.186 70.8749 66.866 69.0349 66.466C67.5149 70.226 66.7549 74.146 66.7549 78.226C68.5949 78.466 70.5949 78.666 72.7549 78.826C74.9149 78.906 76.9949 78.946 78.9949 78.946C82.7549 78.946 86.5949 78.666 90.5149 78.106C94.5149 77.466 98.5149 76.426 102.515 74.986L106.115 86.626C102.915 87.666 99.6349 88.386 96.2749 88.786C92.9149 89.186 89.6349 89.386 86.4349 89.386ZM76.4749 60.946C79.5149 60.946 82.5549 60.786 85.5949 60.466C88.7149 60.146 91.4349 59.746 93.7549 59.266C93.9949 57.666 94.1149 56.146 94.1149 54.706C94.1149 51.826 93.7149 49.266 92.9149 47.026C92.1949 44.706 91.2749 42.666 90.1549 40.906C85.6749 43.866 81.9549 46.986 78.9949 50.266C76.1149 53.546 73.5949 57.066 71.4349 60.826C72.2349 60.906 73.0749 60.946 73.9549 60.946C74.8349 60.946 75.6749 60.946 76.4749 60.946Z" fill="#171717"/>
<path d="M128.576 88.306L122.456 4.546L148.136 0.585999L143.576 52.426L169.136 22.186L177.176 28.426L158.576 47.866L184.616 86.746L161.816 88.306L146.816 60.226L142.496 64.306L140.456 87.226L128.576 88.306Z" fill="#171717"/>
<path d="M200.295 88.306L194.175 4.546L219.855 0.585999L215.295 52.426L240.855 22.186L248.895 28.426L230.295 47.866L256.335 86.746L233.535 88.306L218.535 60.226L214.215 64.306L212.175 87.226L200.295 88.306Z" fill="#171717"/>
<path d="M293.974 89.386C287.734 89.386 282.214 88.826 277.414 87.706C272.614 86.586 268.614 84.786 265.414 82.306C264.694 79.106 264.174 76.226 263.854 73.666C263.614 71.026 263.494 68.546 263.494 66.226C263.494 59.106 264.574 52.586 266.734 46.666C268.974 40.746 271.814 35.666 275.254 31.426C278.694 27.106 282.254 23.906 285.934 21.826C289.214 23.106 292.534 24.666 295.894 26.506C299.334 28.266 302.494 30.346 305.374 32.746C308.254 35.146 310.574 37.866 312.334 40.906C314.094 43.866 314.974 47.146 314.974 50.746C314.974 54.506 314.294 57.666 312.934 60.226C311.654 62.706 309.294 64.586 305.854 65.866C302.414 67.146 297.454 67.786 290.974 67.786C288.254 67.786 285.614 67.666 283.054 67.426C280.574 67.186 278.414 66.866 276.574 66.466C275.054 70.226 274.294 74.146 274.294 78.226C276.134 78.466 278.134 78.666 280.294 78.826C282.454 78.906 284.534 78.946 286.534 78.946C290.294 78.946 294.134 78.666 298.054 78.106C302.054 77.466 306.054 76.426 310.054 74.986L313.654 86.626C310.454 87.666 307.174 88.386 303.814 88.786C300.454 89.186 297.174 89.386 293.974 89.386ZM284.014 60.946C287.054 60.946 290.094 60.786 293.134 60.466C296.254 60.146 298.974 59.746 301.294 59.266C301.534 57.666 301.654 56.146 301.654 54.706C301.654 51.826 301.254 49.266 300.454 47.026C299.734 44.706 298.814 42.666 297.694 40.906C293.214 43.866 289.494 46.986 286.534 50.266C283.654 53.546 281.134 57.066 278.974 60.826C279.774 60.906 280.614 60.946 281.494 60.946C282.374 60.946 283.214 60.946 284.014 60.946Z" fill="#171717"/>
<path d="M335.515 88.306L329.395 28.786L355.075 24.826L352.675 44.026H353.515C356.555 37.386 360.155 32.186 364.315 28.426C368.555 24.586 373.115 22.466 377.995 22.066L374.635 47.626C373.355 47.466 372.115 47.346 370.915 47.266C369.795 47.106 368.675 47.026 367.555 47.026C364.115 47.026 361.155 47.786 358.675 49.306C356.275 50.826 354.275 53.546 352.675 57.466C351.155 61.306 349.955 66.706 349.075 73.666L347.395 87.226L335.515 88.306Z" fill="#171717"/>
<path d="M74.6889 127.006V110.494H79.8729V123.214H85.7289L85.4889 127.006H74.6889Z" fill="#171717"/>
<path d="M101.956 127.006V110.494H113.548V114.142H107.788V117.07H113.044V120.094H107.788V123.238H113.548V127.006H101.956Z" fill="#171717"/>
<path d="M128.89 127.006L133.45 110.494H141.226L146.002 127.006H140.122L139.498 123.838H135.226L134.53 127.006H128.89ZM135.73 120.886H138.922L137.362 113.662L135.73 120.886Z" fill="#171717"/>
<path d="M174.198 127.39C173.046 127.39 172.094 127.222 171.342 126.886C170.59 126.534 169.99 126.054 169.542 125.446C169.094 124.838 168.758 124.126 168.534 123.31C168.31 122.494 168.158 121.614 168.078 120.67H166.95V127.006H161.694V110.494H168.486C171.11 110.494 172.998 110.958 174.15 111.886C175.318 112.798 175.902 114.038 175.902 115.606C175.902 116.55 175.646 117.398 175.134 118.15C174.622 118.886 173.798 119.502 172.662 119.998C172.726 120.35 172.782 120.638 172.83 120.862C172.878 121.086 172.95 121.334 173.046 121.606C173.254 122.182 173.51 122.582 173.814 122.806C174.134 123.03 174.566 123.142 175.11 123.142C175.462 123.142 175.814 123.094 176.166 122.998L176.454 126.934C176.134 127.062 175.79 127.166 175.422 127.246C175.07 127.342 174.662 127.39 174.198 127.39ZM166.95 117.382H167.862C169.046 117.382 169.878 117.254 170.358 116.998C170.854 116.726 171.102 116.27 171.102 115.63C171.102 115.086 170.902 114.694 170.502 114.454C170.102 114.198 169.47 114.07 168.606 114.07H166.95V117.382Z" fill="#171717"/>
<path d="M192.312 127.006V110.494H197.112L203.592 119.254V110.494H208.008V127.006H203.208L196.728 118.606V127.006H192.312Z" fill="#171717"/>
<path d="M225.04 127.006V110.494H230.464V127.006H225.04Z" fill="#171717"/>
<path d="M247.503 127.006V110.494H252.303L258.783 119.254V110.494H263.199V127.006H258.399L251.919 118.606V127.006H247.503Z" fill="#171717"/>
<path d="M288.055 127.39C286.327 127.39 284.823 127.038 283.543 126.334C282.279 125.63 281.295 124.654 280.591 123.406C279.887 122.158 279.535 120.718 279.535 119.086C279.535 117.342 279.903 115.798 280.639 114.454C281.375 113.11 282.407 112.054 283.735 111.286C285.063 110.518 286.607 110.134 288.367 110.134C290.287 110.134 291.815 110.518 292.951 111.286L292.231 115.054C291.223 114.622 290.175 114.406 289.087 114.406C287.775 114.406 286.743 114.798 285.991 115.582C285.239 116.366 284.863 117.454 284.863 118.846C284.863 120.254 285.199 121.35 285.871 122.134C286.559 122.918 287.431 123.31 288.487 123.31C288.871 123.31 289.191 123.278 289.447 123.214V119.11L293.599 118.63V126.142C292.687 126.558 291.759 126.87 290.815 127.078C289.871 127.286 288.951 127.39 288.055 127.39Z" fill="#171717"/>
</svg>
